<svg width="35" height="34" viewBox="0 0 35 34" fill="none" xmlns="http://www.w3.org/2000/svg">
<path d="M23.4305 2.8053C27.7393 2.8053 30.1385 5.28817 30.1385 9.54253V23.9516C30.1385 28.2757 27.7393 30.7027 23.4305 30.7027H11.7401C7.49968 30.7027 5.03076 28.2757 5.03076 23.9516V9.54253C5.03076 5.28817 7.49968 2.8053 11.7401 2.8053H23.4305ZM12.1167 21.9708C11.6982 21.929 11.2937 22.1243 11.0706 22.4869C10.8474 22.8357 10.8474 23.296 11.0706 23.6586C11.2937 24.0073 11.6982 24.2166 12.1167 24.1608H23.0525C23.6091 24.105 24.0289 23.6293 24.0289 23.0728C24.0289 22.5009 23.6091 22.0266 23.0525 21.9708H12.1167ZM23.0525 15.6088H12.1167C11.5155 15.6088 11.0287 16.0984 11.0287 16.6982C11.0287 17.298 11.5155 17.7862 12.1167 17.7862H23.0525C23.6523 17.7862 24.1405 17.298 24.1405 16.6982C24.1405 16.0984 23.6523 15.6088 23.0525 15.6088ZM16.286 9.29145H12.1167V9.3054C11.5155 9.3054 11.0287 9.79361 11.0287 10.3934C11.0287 10.9932 11.5155 11.4814 12.1167 11.4814H16.286C16.8872 11.4814 17.3754 10.9932 17.3754 10.3781C17.3754 9.77966 16.8872 9.29145 16.286 9.29145Z" fill="white"/>
</svg>
