<svg width="35" height="35" viewBox="0 0 35 35" fill="none" xmlns="http://www.w3.org/2000/svg">
<path d="M11.8934 19.7578C13.8602 19.7578 15.4364 21.3493 15.4364 23.3301V28.0852C15.4364 30.0519 13.8602 31.656 11.8934 31.656H7.17872C5.2259 31.656 3.63574 30.0519 3.63574 28.0852V23.3301C3.63574 21.3493 5.2259 19.7578 7.17872 19.7578H11.8934ZM27.9903 19.7578C29.9432 19.7578 31.5333 21.3493 31.5333 23.3301V28.0852C31.5333 30.0519 29.9432 31.656 27.9903 31.656H23.2757C21.3089 31.656 19.7327 30.0519 19.7327 28.0852V23.3301C19.7327 21.3493 21.3089 19.7578 23.2757 19.7578H27.9903ZM11.8934 3.75903C13.8602 3.75903 15.4364 5.36314 15.4364 7.3313V12.0864C15.4364 14.0671 13.8602 15.6573 11.8934 15.6573H7.17872C5.2259 15.6573 3.63574 14.0671 3.63574 12.0864V7.3313C3.63574 5.36314 5.2259 3.75903 7.17872 3.75903H11.8934ZM27.9903 3.75903C29.9432 3.75903 31.5333 5.36314 31.5333 7.3313V12.0864C31.5333 14.0671 29.9432 15.6573 27.9903 15.6573H23.2757C21.3089 15.6573 19.7327 14.0671 19.7327 12.0864V7.3313C19.7327 5.36314 21.3089 3.75903 23.2757 3.75903H27.9903Z" fill="white"/>
</svg>
