<svg width="44" height="32" viewBox="0 0 44 32" fill="none" xmlns="http://www.w3.org/2000/svg">
<path d="M34.6746 15.1335H9.26913C7.26469 15.1335 5.63977 16.2897 5.63977 17.7159V26.7544C5.63977 28.1807 7.26469 29.3369 9.26913 29.3369H34.6746C36.6791 29.3369 38.304 28.1807 38.304 26.7544V17.7159C38.304 16.2897 36.6791 15.1335 34.6746 15.1335Z" stroke="#222B45" stroke-linecap="round" stroke-linejoin="round"/>
<path d="M12.8985 15.1335V9.96866C12.8985 8.2564 13.8544 6.61427 15.556 5.40352C17.2576 4.19277 19.5655 3.51257 21.9719 3.51257C24.3783 3.51257 26.6862 4.19277 28.3878 5.40352C30.0893 6.61427 31.0453 8.2564 31.0453 9.96866V15.1335" stroke="#222B45" stroke-linecap="round" stroke-linejoin="round"/>
</svg>
