<svg width="35" height="35" viewBox="0 0 35 35" fill="none" xmlns="http://www.w3.org/2000/svg">
<path d="M18.585 3.66675C19.6398 3.66675 20.5949 4.25259 21.1224 5.11741C21.379 5.53588 21.55 6.05198 21.5072 6.59598C21.4787 7.01444 21.607 7.4329 21.8351 7.82347C22.5621 9.00911 24.1729 9.45547 25.4274 8.78593C26.8386 7.9769 28.6205 8.46511 29.433 9.84603L30.3881 11.492C31.2149 12.8729 30.7587 14.6444 29.3332 15.4395C28.1216 16.1508 27.6939 17.7271 28.4209 18.9266C28.649 19.3033 28.9056 19.6241 29.3047 19.8194C29.8037 20.0844 30.1885 20.5028 30.4594 20.9213C30.9868 21.7861 30.9441 22.8462 30.4309 23.7808L29.433 25.4546C28.9056 26.3474 27.922 26.9053 26.9099 26.9053C26.411 26.9053 25.855 26.7658 25.3989 26.4869C25.0282 26.2497 24.6006 26.166 24.1444 26.166C22.7332 26.166 21.55 27.3238 21.5072 28.7047C21.5072 30.3088 20.1958 31.5642 18.5565 31.5642H16.6178C14.9642 31.5642 13.6527 30.3088 13.6527 28.7047C13.6242 27.3238 12.4411 26.166 11.0298 26.166C10.5594 26.166 10.1318 26.2497 9.77538 26.4869C9.31922 26.7658 8.74903 26.9053 8.26436 26.9053C7.238 26.9053 6.2544 26.3474 5.72697 25.4546L4.74337 23.7808C4.21594 22.8741 4.18743 21.7861 4.71486 20.9213C4.94294 20.5028 5.37059 20.0844 5.85526 19.8194C6.2544 19.6241 6.51099 19.3033 6.75333 18.9266C7.46608 17.7271 7.03843 16.1508 5.82675 15.4395C4.41551 14.6444 3.95935 12.8729 4.77188 11.492L5.72697 9.84603C6.55376 8.46511 8.32138 7.9769 9.74687 8.78593C10.9871 9.45547 12.5979 9.00911 13.3249 7.82347C13.553 7.4329 13.6813 7.01444 13.6527 6.59598C13.6242 6.05198 13.781 5.53588 14.0519 5.11741C14.5793 4.25259 15.5344 3.69465 16.575 3.66675H18.585ZM17.6014 13.6819C15.3633 13.6819 13.553 15.4395 13.553 17.6294C13.553 19.8194 15.3633 21.563 17.6014 21.563C19.8394 21.563 21.607 19.8194 21.607 17.6294C21.607 15.4395 19.8394 13.6819 17.6014 13.6819Z" fill="white"/>
</svg>
