<svg width="33" height="33" viewBox="0 0 33 33" fill="none" xmlns="http://www.w3.org/2000/svg">
<path fill-rule="evenodd" clip-rule="evenodd" d="M29.8857 23.1273C28.8407 19.8135 26.0357 17.916 22.1857 17.916H22.1307C20.4395 17.916 18.9682 18.2873 17.7307 18.9611C20.8382 20.0886 23.1482 22.4123 24.2207 25.6435C26.2695 25.4235 28.0707 24.846 29.5832 23.9248L30.0507 23.636L29.8857 23.1273Z" fill="white"/>
<path fill-rule="evenodd" clip-rule="evenodd" d="M19.1882 15.1111C20.027 15.7023 21.0582 16.0598 22.1582 16.0598C24.9907 16.0598 27.3007 13.7498 27.3007 10.9036C27.3007 8.07105 24.9907 5.76105 22.1582 5.76105C21.3607 5.76105 20.6182 5.93981 19.9445 6.2698C20.5907 7.41105 20.962 8.73106 20.962 10.1336C20.962 12.0173 20.302 13.7498 19.1882 15.1111Z" fill="white"/>
<path fill-rule="evenodd" clip-rule="evenodd" d="M22.8045 25.7398C21.7182 22.7836 19.4632 20.7761 16.3832 19.9648C15.3795 19.6898 14.2657 19.5523 13.0832 19.5523H13.0145C8.06446 19.5523 4.46196 21.9861 3.11446 26.2348L2.94946 26.7436L3.41696 27.0186C6.02946 28.6273 9.16446 29.3973 12.9732 29.3973H13.042C16.947 29.4111 20.0545 28.6273 22.6807 27.0186L23.1482 26.7436L22.9832 26.2348C22.9282 26.0698 22.8732 25.9048 22.8045 25.7398Z" fill="white"/>
<path fill-rule="evenodd" clip-rule="evenodd" d="M13.0419 16.6785C15.1319 16.6785 16.9882 15.6885 18.1844 14.1623C19.0644 13.0623 19.5869 11.6598 19.5869 10.1335C19.5869 9.00604 19.2982 7.94729 18.8032 7.02604C17.6894 4.99104 15.5307 3.60229 13.0419 3.60229C9.43942 3.60229 6.51067 6.53105 6.51067 10.1335C6.51067 13.736 9.43942 16.6785 13.0419 16.6785Z" fill="white"/>
</svg>
