<svg width="35" height="34" viewBox="0 0 35 34" fill="none" xmlns="http://www.w3.org/2000/svg">
<path d="M13.588 29.0376V24.7725C13.588 23.6837 14.4771 22.8011 15.5738 22.8011H19.5829C20.1096 22.8011 20.6147 23.0088 20.9871 23.3785C21.3595 23.7482 21.5687 24.2496 21.5687 24.7725V29.0376C21.5654 29.4902 21.7442 29.9255 22.0654 30.2467C22.3867 30.568 22.8238 30.7486 23.2798 30.7486H26.015C27.2924 30.7519 28.5186 30.2504 29.4231 29.3549C30.3276 28.4593 30.8359 27.2433 30.8359 25.9751V13.8245C30.8359 12.8001 30.3785 11.8284 29.5869 11.1711L20.2823 3.79395C18.6638 2.50047 16.3447 2.54224 14.7745 3.89314L5.68217 11.1711C4.85324 11.809 4.3578 12.7836 4.33331 13.8245V25.9627C4.33331 28.6059 6.49171 30.7486 9.15423 30.7486H11.827C12.774 30.7486 13.5436 29.9901 13.5505 29.05L13.588 29.0376Z" fill="white"/>
</svg>
