<svg width="35" height="35" viewBox="0 0 35 35" fill="none" xmlns="http://www.w3.org/2000/svg">
<path d="M16.8769 3.75903C20.3397 3.75903 23.1639 6.53483 23.1639 9.95226V16.6337H14.6487C14.0385 16.6337 13.556 17.108 13.556 17.7078C13.556 18.2936 14.0385 18.7818 14.6487 18.7818H23.1639V25.4493C23.1639 28.8667 20.3397 31.6565 16.8485 31.6565H9.93699C6.45995 31.6565 3.63574 28.8807 3.63574 25.4632V9.96621C3.63574 6.53483 6.47414 3.75903 9.95119 3.75903H16.8769ZM26.7072 12.8957C27.1257 12.4633 27.8091 12.4633 28.2276 12.8818L32.3006 16.9409C32.5099 17.1501 32.6215 17.4151 32.6215 17.708C32.6215 17.987 32.5099 18.266 32.3006 18.4613L28.2276 22.5203C28.0184 22.7296 27.7394 22.8412 27.4744 22.8412C27.1954 22.8412 26.9164 22.7296 26.7072 22.5203C26.2887 22.1019 26.2887 21.4184 26.7072 20.9999L28.939 18.7821H23.1642V16.634H28.939L26.7072 14.4161C26.2887 13.9977 26.2887 13.3142 26.7072 12.8957Z" fill="white"/>
</svg>
